{
  "title": "Independence Day: Resurgence 2016 1080p HC HDRip x264 DUAL RK",
  "uid": 15439837,
  "size": 4657786286,
  "categoryP": "video",
  "categoryS": "hd___movies",
  "magnet": "?xt=urn:btih:85e9d0c86ccf2b116d8d2a544228ab5ccda626b5&amp;dn=Independence+Day%3A+Resurgence+2016+1080p+HC+HDRip+x264+DUAL+RK&amp;tr=udp%3A%2F%2Ftracker.leechers-paradise.org%3A6969&amp;tr=udp%3A%2F%2Fzer0day.ch%3A1337&amp;tr=udp%3A%2F%2Fopen.demonii.com%3A1337&amp;tr=udp%3A%2F%2Ftracker.coppersurfer.tk%3A6969&amp;tr=udp%3A%2F%2Fexodus.desync.com%3A6969",
  "seeders": 49,
  "leechers": 7,
  "uploader": "Alemao99",
  "files": 3,
  "time": 1469809758,
  "description": "After the devastating alien attack occurred in 1996, all the nations of the earth have joined to fight the aliens, if they returned. For both are built bases on the Moon and also in Saturn, which serve as monitoring. Twenty years later, the backlash finally happens and a huge ship, much larger than the previous ones, comes to Earth. To meet them, a new generation of riders led by Jake Morrison (Liam Hemsworth) is convened by the President Landford (Sela Ward). They also receive help from the first battle veterans, as former President Whitmore (Bill Pullman), the scientist David Levinson (Jeff Goldblum) and his father Julius (Judd Hirsch).\r\n\r\n\r\nRelease Year: 2016\r\nIMDB: http://www.imdb.com/title/tt1628841/\r\n\r\nVideo codec: x264\r\nAudio codec: AC3\r\nAudio Language: Portuguese / English\r\nLegend: Portuguese\r\nVideo Quality: Other\r\nExtension File: MKV\r\nResolution: 1920 x 1080\r\nFile Size: 4:33 Gb\r\n\r\nIt contains built-in Chinese legend in the video !.\r\n\r\nScreens:\r\ni.share.pho.to/61ac14f9_o.png\r\n\r\ni.share.pho.to/af7b626b_o.png\r\n\r\n\r\n\r\nVideo\r\nID                                       : 1\r\nFormat                                   : AVC\r\nFormat/Info                              : Advanced Video Codec\r\nFormat profile                           :   \r\nFormat settings, CABAC                   : Yes\r\nFormat settings, ReFrames                : 4 frames\r\nCodec ID                                 : V_MPEG4/ISO/AVC\r\nBit rate                                 : 4 815 Kbps\r\nWidth                                    : 1 920 pixels\r\nHeight                                   : 1 080 pixels\r\nDisplay aspect ratio                     : 16:9\r\nFrame rate mode                          : Variable\r\nColor space                              : YUV\r\nChroma subsampling                       : 4:2:0\r\nBit depth                                : 8 bits\r\nScan type                                : Progressive\r\nTitle                                    : Independence.Day.O.Ressurgimento.2016.1080p.HC.HDRip.x264-DUAL-RK\r\nWriting library                          : x264 core 142 r2431 a5831aa\r\nEncoding settings                        : cabac=1 / ref=1 / deblock=1:0:0 / analyse=0x1:0x111 / me=hex / subme=2 / psy=1 / psy_rd=1,00:0,00 / mixed_ref=0 / me_range=16 / chroma_me=1 / trellis=0 / 8x8dct=0 / cqm=0 / deadzone=21,11 / fast_pskip=1 / chroma_qp_offset=0 / threads=6 / lookahead_threads=2 / sliced_threads=0 / nr=0 / decimate=1 / interlaced=0 / bluray_compat=0 / constrained_intra=0 / bframes=3 / b_pyramid=2 / b_adapt=1 / b_bias=0 / direct=1 / weightb=1 / open_gop=0 / weightp=1 / keyint=300 / keyint_min=30 / scenecut=40 / intra_refresh=0 / rc_lookahead=10 / rc=abr / mbtree=1 / bitrate=4815 / ratetol=1,0 / qcomp=0,60 / qpmin=0 / qpmax=69 / qpstep=4 / vbv_maxrate=20000 / vbv_bufsize=25000 / nal_hrd=none / filler=0 / ip_ratio=1,40 / aq=1:1,00\r\nLanguage                                 : English\r\nDefault                                  : Yes\r\nForced                                   : No\r\nDURATION                                 : 01:59:11.064000000\r\nNUMBER_OF_FRAMES                         : 214317\r\nNUMBER_OF_BYTES                          : 4312174428\r\n_STATISTICS_WRITING_APP                  : mkvmerge v8.8.0 ('Wind at my back') 64bit\r\n_STATISTICS_WRITING_DATE_UTC             : 2016-07-29 04:21:17\r\n_STATISTICS_TAGS                         : BPS DURATION NUMBER_OF_FRAMES NUMBER_OF_BYTES\r\nColor primaries                          : BT.709-5, BT.1361, IEC 61966-2-4, SMPTE RP177\r\nTransfer characteristics                 : BT.709-5, BT.1361\r\nMatrix coefficients                      : BT.709-5, BT.1361, IEC 61966-2-4 709, SMPTE RP177\r\n\r\nAudio #1\r\nID                                       : 2\r\nFormat                                   : AC-3\r\nFormat/Info                              : Audio Coding 3\r\nMode extension                           : CM (complete main)\r\nCodec ID                                 : A_AC3\r\nDuration                                 : 1h 59mn\r\nBit rate mode                            : Constant\r\nBit rate                                 : 192 Kbps\r\nChannel(s)                               : 2 channels\r\nChannel positions                        : Front: L R\r\nSampling rate                            : 48.0 KHz\r\nBit depth                                : 16 bits\r\nCompression mode                         : Lossy\r\nDelay relative to video                  : -113ms\r\nStream size                              : 164 MiB (4%)\r\nTitle                                    : @RK [BR] Audio Cinema (Nota 7,5)\r\nLanguage                                 : Portuguese\r\nDefault                                  : Yes\r\nForced                                   : No\r\nDURATION                                 : 01:59:11.038000000\r\nNUMBER_OF_FRAMES                         : 205313\r\nNUMBER_OF_BYTES                          : 171624906\r\n_STATISTICS_WRITING_APP                  : mkvmerge v8.8.0 ('Wind at my back') 64bit\r\n_STATISTICS_WRITING_DATE_UTC             : 2016-07-29 04:21:17\r\n_STATISTICS_TAGS                         : BPS DURATION NUMBER_OF_FRAMES NUMBER_OF_BYTES\r\n\r\nAudio #2\r\nID                                       : 3\r\nFormat                                   : AC-3\r\nFormat/Info                              : Audio Coding 3\r\nMode extension                           : CM (complete main)\r\nCodec ID                                 : A_AC3\r\nDuration                                 : 1h 59mn\r\nBit rate mode                            : Constant\r\nBit rate                                 : 192 Kbps\r\nChannel(s)                               : 2 channels\r\nChannel positions                        : Front: L R\r\nSampling rate                            : 44.1 KHz\r\nBit depth                                : 16 bits\r\nCompression mode                         : Lossy\r\nDelay relative to video                  : -6ms\r\nStream size                              : 164 MiB (4%)\r\nTitle                                    : @RK [ENG] Dolby Digital 2.0\r\nLanguage                                 : English\r\nDefault                                  : No\r\nForced                                   : No\r\n\r\n\r\n\r\nSEED PLEASE\r\n\r\nENJOY",
  "parsed": {
    "xt": "urn:btih:85e9d0c86ccf2b116d8d2a544228ab5ccda626b5",
    "dn": "Independence Day: Resurgence 2016 1080p HC HDRip x264 DUAL RK",
    "tr": [
      "udp://exodus.desync.com:6969",
      "udp://open.demonii.com:1337",
      "udp://tracker.coppersurfer.tk:6969",
      "udp://tracker.leechers-paradise.org:6969",
      "udp://zer0day.ch:1337"
    ],
    "infoHash": "85e9d0c86ccf2b116d8d2a544228ab5ccda626b5",
    "infoHashBuffer": {
      "type": "Buffer",
      "data": [
        133,
        233,
        208,
        200,
        108,
        207,
        43,
        17,
        109,
        141,
        42,
        84,
        66,
        40,
        171,
        92,
        205,
        166,
        38,
        181
      ]
    },
    "name": "Independence Day: Resurgence 2016 1080p HC HDRip x264 DUAL RK",
    "announce": [
      "udp://exodus.desync.com:6969",
      "udp://open.demonii.com:1337",
      "udp://tracker.coppersurfer.tk:6969",
      "udp://tracker.leechers-paradise.org:6969",
      "udp://zer0day.ch:1337"
    ],
    "urlList": []
  },
  "previous": 56,
  "peers": 20,
  "last_updated": "2016-12-25T06:38:49.219Z"
}